<?xml version="1.0" encoding="UTF-8" standalone="no"?>
<!-- Created with Inkscape (http://www.inkscape.org/) -->

<svg
   width="512"
   height="512"
   viewBox="0 0 135.46667 135.46667"
   version="1.1"
   id="svg5"
   xmlns="http://www.w3.org/2000/svg"
   xmlns:svg="http://www.w3.org/2000/svg">
  <defs
     id="defs2" />
  <g
     id="layer1">
    <path
       id="path49"
       style="fill:#000000;stroke:#000000;stroke-width:0;stroke-miterlimit:4;stroke-dasharray:none"
       d="M 256.5 0.5 A 256.00001 256.00001 0 0 0 0.5 256.5 A 256.00001 256.00001 0 0 0 256.5 512.5 A 256.00001 256.00001 0 0 0 512.5 256.5 A 256.00001 256.00001 0 0 0 256.5 0.5 z M 173.59961 96.697266 A 64.000002 64.000002 0 0 1 237.59961 160.69727 A 64.000002 64.000002 0 0 1 173.59961 224.69727 A 64.000002 64.000002 0 0 1 109.59961 160.69727 A 64.000002 64.000002 0 0 1 173.59961 96.697266 z M 405.25977 193.4668 A 64.000002 64.000002 0 0 1 469.25977 257.4668 A 64.000002 64.000002 0 0 1 405.25977 321.4668 A 64.000002 64.000002 0 0 1 341.25977 257.4668 A 64.000002 64.000002 0 0 1 405.25977 193.4668 z M 201.16406 318.97461 A 64.000002 64.000002 0 0 1 265.16406 382.97461 A 64.000002 64.000002 0 0 1 201.16406 446.97461 A 64.000002 64.000002 0 0 1 137.16406 382.97461 A 64.000002 64.000002 0 0 1 201.16406 318.97461 z "
       transform="scale(0.26458334)" />
  </g>
</svg>
